<?xml version="1.0" encoding="UTF-8" standalone="no"?>
<!-- Created with Inkscape (http://www.inkscape.org/) -->

<svg
   xmlns:dc="http://purl.org/dc/elements/1.1/"
   xmlns:cc="http://creativecommons.org/ns#"
   xmlns:rdf="http://www.w3.org/1999/02/22-rdf-syntax-ns#"
   xmlns:svg="http://www.w3.org/2000/svg"
   xmlns="http://www.w3.org/2000/svg"
   xmlns:sodipodi="http://sodipodi.sourceforge.net/DTD/sodipodi-0.dtd"
   xmlns:inkscape="http://www.inkscape.org/namespaces/inkscape"
   width="970"
   height="490"
   viewBox="0 0 970.00001 490.00001"
   id="svg2"
   version="1.1"
   inkscape:version="0.91 r13725"
   sodipodi:docname="rink-gs.svg">
  <defs
     id="defs4" />
  <sodipodi:namedview
     id="base"
     pagecolor="#ffffff"
     bordercolor="#666666"
     borderopacity="1.0"
     inkscape:pageopacity="0.0"
     inkscape:pageshadow="2"
     inkscape:zoom="1.4"
     inkscape:cx="469.03372"
     inkscape:cy="278.51893"
     inkscape:document-units="px"
     inkscape:current-layer="g4285"
     showgrid="false"
     units="px"
     inkscape:window-width="1918"
     inkscape:window-height="1058"
     inkscape:window-x="0"
     inkscape:window-y="20"
     inkscape:window-maximized="0" />
  <metadata
     id="metadata7">
    <rdf:RDF>
      <cc:Work
         rdf:about="">
        <dc:format>image/svg+xml</dc:format>
        <dc:type
           rdf:resource="http://purl.org/dc/dcmitype/StillImage" />
        <dc:title></dc:title>
      </cc:Work>
    </rdf:RDF>
  </metadata>
  <g
     inkscape:label="red"
     inkscape:groupmode="layer"
     id="layer1"
     transform="translate(0,-562.36213)">
    <path
       inkscape:connector-curvature="0"
       id="path4157"
       d="m 110,1051.4268 c -46.446897,-6.0817 -90.593737,-44.3684 -106.0058777,-91.93453 -5.32829,-16.44459 -5.47814,-20.60244 -5.47814,-152 0,-100.25209 0.25117,-123.01351 1.46479007,-132.74261 C 6.8620023,619.58599 56.052933,570.35899 111.16433,563.48459 c 17.59085,-2.19422 729.79641,-2.22977 747.37067,-0.0373 47.94662,5.98155 91.73726,43.48668 107.47088,92.04498 5.32829,16.44459 5.47814,20.60244 5.47814,152 0,131.39756 -0.14985,135.55541 -5.47814,152 C 952.7826,1000.303 918.81072,1034.2748 878,1047.4981 c -17.72191,5.7422 0.94029,5.4887 -394.5,5.3581 -293.28969,-0.097 -365.43151,-0.373 -373.5,-1.4294 z m 253,-243.93453 0,-239 -122,0 c -112.04095,0 -122.69387,0.14215 -130.5,1.74143 -12.446597,2.54998 -23.261047,6.22307 -33.999997,11.54799 l -9.5,4.71058 -0.25507,94.71009 -0.25507,94.71009 4.24945,1.14426 c 9.33455,2.51353 16.41405,8.24322 20.92525,16.93556 1.94714,3.75181 2.33225,5.99638 2.31625,13.5 -0.0166,7.77753 -0.37956,9.68777 -2.67231,14.06346 -4.27053,8.15023 -12.34785,14.54101 -20.526,16.24018 l -3.7825,0.78588 0,94.91065 0,94.91066 8.5,4.3234 c 13.83602,7.0375 29.455437,11.5163 47.499997,13.6203 1.65,0.1924 56.325,0.3039 121.5,0.2476 l 118.5,-0.1022 0,-238.99993 z M 145.12321,1004.4527 c -0.34277,-0.8932 -0.62438,-4.1747 -0.62581,-7.29222 l -0.003,-5.66821 -7.80149,-2.75512 c -31.73414,-11.20699 -53.019097,-45.20074 -49.210607,-78.5932 2.01867,-17.6995 9.49698,-32.90189 22.456807,-45.65168 9.07193,-8.9249 15.94907,-13.3897 26.76071,-17.37368 l 7.29978,-2.68989 0.5,-6.13599 c 0.275,-3.37479 0.80756,-6.44305 1.18347,-6.81835 1.59262,-1.59004 2.81653,0.99752 2.81653,5.95463 l 0,5.31868 12.75,-0.0153 c 7.0125,-0.008 13.425,0.15912 14.25,0.3723 1.17201,0.30285 1.60933,-0.92437 2,-5.6124 0.37037,-4.44444 0.88889,-6 2,-6 1.15436,0 1.56778,1.53998 1.79417,6.68317 l 0.29416,6.68316 6.25141,2.08034 c 9.9471,3.31018 18.51203,8.90416 27.66026,18.06564 9.56833,9.58218 14.06627,16.53874 18.14382,28.06143 7.35999,20.79847 5.01215,44.75005 -6.22053,63.45897 -8.24377,13.73064 -23.80225,26.66719 -38.53391,32.04013 l -7.38898,2.69506 0,6.80706 c 0,6.24507 -1.10129,9.15537 -2.81653,7.44297 -0.37591,-0.3753 -0.90847,-3.4579 -1.18347,-6.85017 -0.39102,-4.82342 -0.82694,-6.08801 -2,-5.80186 -0.825,0.20124 -7.21714,0.35653 -14.20475,0.34509 l -12.70475,-0.0208 -0.29525,6.07557 c -0.28634,5.89207 -1.89408,8.52497 -3.17204,5.19467 z m 35.71435,-17.04452 c 12.04789,-3.1153 25.27522,-11.01821 33.93258,-20.27363 26.6509,-28.49197 25.91123,-72.11981 -1.69069,-99.72173 -27.57788,-27.57789 -70.85019,-28.35829 -99.5415,-1.7952 -11.55506,10.69795 -18.892427,24.65854 -21.745567,41.37465 -5.20937,30.52085 10.736587,61.0773 39.179457,75.07764 15.90597,7.82935 33.10952,9.67104 49.86572,5.33827 z m -29.848,-44.66591 c -0.24621,-0.6875 -0.56959,-4.625 -0.71861,-8.75 l -0.27095,-7.5 -15.5,-0.5 c -21.06974,-0.67967 -20.02185,-2.41727 1.67351,-2.77497 12.67043,-0.20891 16.872,0.0314 17.48673,1 0.94234,1.48486 1.12632,15.86463 0.23277,18.19318 -0.72656,1.89339 -2.28059,2.07097 -2.90345,0.33179 z M 172.5,933.51132 c 0,-10.03781 0.0951,-10.50444 2.25,-11.03664 1.2375,-0.30564 9,-0.42671 17.25,-0.26906 12.53927,0.23963 15,0.53272 15,1.78665 0,1.24731 -2.61111,1.58423 -15.5,2 l -15.5,0.5 -0.28893,8.75 c -0.22704,6.87565 -0.60191,8.75 -1.75,8.75 -1.18849,0 -1.46107,-1.95534 -1.46107,-10.48095 z m -14,-10.51905 c -4.13503,-4.13503 -1.43351,-11 4.32874,-11 3.17042,0 6.67126,3.17244 6.67126,6.04545 0,2.64002 -4.31453,6.95455 -6.95455,6.95455 -1.125,0 -2.94545,-0.9 -4.04545,-2 z m -39.50437,-10.00706 c -1.01838,-1.64778 1.2849,-1.95935 16.50437,-2.2326 l 14.5,-0.26034 0.5,-8.67119 c 0.51118,-8.86509 1.38947,-11.40824 3.03906,-8.79985 1.0317,1.63135 1.31037,16.89686 0.35395,19.38925 -0.52023,1.35571 -3.01307,1.58179 -17.44098,1.58179 -10.22268,0 -17.07843,-0.39551 -17.4564,-1.00706 z m 53.94246,-0.29368 c -0.93457,-2.43545 0.0114,-20.21159 1.06191,-19.95531 0.55,0.13417 1.12985,4.06033 1.28857,8.7248 l 0.28856,8.48086 15.71144,0.27519 c 13.17674,0.2308 15.71143,0.51719 15.71143,1.7752 0,2.1213 -33.25425,2.80398 -34.06191,0.69926 z M 145.66008,787.75235 c -0.63804,-0.63804 -1.16125,-3.88258 -1.16268,-7.21008 l -0.003,-6.05 -7.80149,-2.75512 c -37.707657,-13.3167 -58.147097,-55.38619 -45.788417,-94.24488 3.65548,-11.4937 8.89674,-19.80296 18.607817,-29.5 9.3646,-9.35107 16.13234,-13.80012 27.18791,-17.87309 l 7.29978,-2.6893 0.5,-6.46881 c 0.37574,-4.86116 0.87278,-6.4688 2,-6.4688 1.12054,0 1.57494,1.4236 1.79625,5.62747 l 0.29625,5.62746 12.70375,-0.0151 c 6.98706,-0.008 13.37875,0.15935 14.20375,0.37254 1.17201,0.30284 1.60933,-0.92438 2,-5.61241 0.37037,-4.44444 0.88889,-6 2,-6 1.15436,0 1.56778,1.53998 1.79417,6.68317 l 0.29416,6.68317 6.25141,2.08034 c 9.9471,3.31018 18.51203,8.90415 27.66026,18.06563 9.56833,9.58219 14.06627,16.53874 18.14382,28.06143 5.59194,15.80216 5.75933,31.70798 0.50774,48.24535 -6.66654,20.99306 -24.60327,39.71902 -45.26218,47.25375 l -7.38938,2.69506 0,6.69938 c 0,7.20911 -0.55405,8.64772 -2.65799,6.9016 -0.84785,-0.70365 -1.34201,-3.3073 -1.34201,-7.07078 l 0,-5.95701 -3.25,0.75198 c -1.7875,0.41358 -8.3125,0.69874 -14.5,0.63367 l -11.25,-0.1183 0,5.88676 c 0,6.08101 -0.83295,7.77185 -2.83992,5.76488 z m 29.23111,-16.23613 c 49.40994,-8.80525 74.71958,-63.65551 49.38424,-107.02395 -4.83446,-8.27551 -17.0013,-20.60668 -24.98337,-25.32079 -41.6404,-24.59231 -95.33596,-1.57136 -106.875387,45.82079 -1.88993,7.76187 -1.68515,25.03355 0.39126,33 7.244837,27.79592 29.174397,48.31737 57.192067,53.51973 9.21199,1.7105 15.31077,1.71153 24.89119,0.004 z m -23.90163,-45.77395 c -0.24621,-0.6875 -0.56959,-4.625 -0.71861,-8.75 l -0.27095,-7.5 -15.5,-0.5 c -21.06974,-0.67967 -20.02185,-2.41727 1.67351,-2.77497 12.67043,-0.20891 16.872,0.0314 17.48673,1 0.94234,1.48486 1.12632,15.86463 0.23277,18.19318 -0.72656,1.89339 -2.28059,2.07097 -2.90345,0.33179 z M 172.5,716.59466 c 0,-10.12424 0.0937,-10.58743 2.25,-11.11998 1.2375,-0.30564 9,-0.42671 17.25,-0.26906 12.53927,0.23963 15,0.53272 15,1.78665 0,1.24731 -2.61111,1.58423 -15.5,2 l -15.5,0.5 -0.5,8.42083 c -0.32482,5.47051 -0.93795,8.56535 -1.75,8.83333 -0.94715,0.31256 -1.25,-2.14701 -1.25,-10.15177 z m -14,-10.60239 c -2.49866,-2.49866 -2.58411,-7.16141 -0.17126,-9.34501 2.68165,-2.42686 7.72576,-2.12912 9.61456,0.56752 2.1938,3.13209 1.93996,5.48514 -0.89785,8.32294 -2.97591,2.97592 -5.87013,3.12987 -8.54545,0.45455 z m -39.50437,-10.00706 c -1.01838,-1.64778 1.2849,-1.95935 16.50437,-2.2326 l 14.5,-0.26034 0.5,-8.67119 c 0.51118,-8.86509 1.38947,-11.40824 3.03906,-8.79985 1.0317,1.63135 1.31037,16.89686 0.35395,19.38925 -0.52023,1.35571 -3.01307,1.58179 -17.44098,1.58179 -10.22268,0 -17.07843,-0.39551 -17.4564,-1.00706 z m 53.94246,-0.29368 c -0.93457,-2.43545 0.0114,-20.21159 1.06191,-19.95531 0.55,0.13417 1.12985,4.06033 1.28857,8.7248 l 0.28856,8.48086 15.71144,0.27519 c 13.17674,0.2308 15.71143,0.51719 15.71143,1.7752 0,2.1213 -33.25425,2.80398 -34.06191,0.69926 z M 479,964.09866 l 0,-82.3936 -8.5,-1.74761 c -17.25864,-3.5484 -29.79924,-10.55015 -41.46644,-23.1518 -7.40018,-7.99288 -14.39925,-20.93052 -17.21055,-31.81338 -2.50827,-9.7098 -2.27448,-26.4089 0.50836,-36.30932 6.14697,-21.86897 21.28771,-39.54007 41.66863,-48.63239 2.75,-1.22683 9.5,-3.25238 15,-4.50123 l 10,-2.27063 0,-82.39322 0,-82.39321 -54,0 -54,0 -0.25626,238 c -0.14094,130.9 -0.0411,238.56643 0.22196,239.25863 0.37784,0.9946 11.76509,1.2045 54.25625,1 L 479,1046.4922 l 0,-82.39354 z m -96.5,-41.10639 c -4.13503,-4.13503 -1.43351,-11 4.32874,-11 3.17042,0 6.67126,3.17244 6.67126,6.04545 0,2.64002 -4.31453,6.95455 -6.95455,6.95455 -1.125,0 -2.94545,-0.9 -4.04545,-2 z m 0,-217 c -2.49866,-2.49866 -2.58411,-7.16141 -0.17126,-9.34501 2.68165,-2.42686 7.72576,-2.12912 9.61456,0.56752 2.1938,3.13209 1.93996,5.48514 -0.89785,8.32294 -2.97591,2.97592 -5.87013,3.12987 -8.54545,0.45455 z m 213.5,101.5 0,-239 -54.5,0 -54.5,0 -0.27523,80.5 c -0.15137,44.275 -0.0546,81.41557 0.21499,82.5346 0.40661,1.68757 2.03513,2.32664 9.548,3.7469 19.58908,3.70317 35.51661,13.70748 46.51777,29.2185 9.81505,13.83867 13.68672,25.93169 13.76674,43 0.0624,13.30159 -2.32455,23.03073 -8.58675,35 -5.1122,9.77121 -17.96339,23.1284 -27.68552,28.77559 -7.26866,4.22207 -19.0672,8.27394 -27.15103,9.32423 -2.94193,0.38224 -5.67958,1.19114 -6.08366,1.79758 -0.92211,1.38388 -1.01096,163.02363 -0.0901,163.94443 0.37136,0.3714 25.00886,0.5589 54.75,0.4167 L 596,1046.4922 596,807.49227 Z m -20.04545,115.04545 c -4.36602,-4.36601 -2.05305,-10.54545 3.94717,-10.54545 6.02475,0 8.84697,6.75131 4.59828,11 -2.67532,2.67532 -5.56954,2.52137 -8.54545,-0.45455 z m 0,-217 c -4.36602,-4.36601 -2.05305,-10.54545 3.94717,-10.54545 6.02475,0 8.84697,6.75131 4.59828,11 -2.67532,2.67532 -5.56954,2.52137 -8.54545,-0.45455 z M 860.4774,1044.681 c 10.98706,-2.4617 24.51765,-7.1743 32.84302,-11.4389 l 7.32042,-3.7499 -0.0852,-94.86928 c -0.0468,-52.17814 -0.33008,-95.26564 -0.62943,-95.75 -0.29935,-0.48436 -1.53022,-0.89053 -2.73526,-0.90261 -7.00519,-0.0702 -17.62292,-8.56487 -21.84635,-17.47804 -5.33773,-11.26479 -3.44202,-24.28253 4.88483,-33.54399 4.83231,-5.37469 9.14824,-8.03817 16.02616,-9.89021 l 4.24441,-1.14289 0,-95.43301 0,-95.43302 -8.37832,-3.9988 c -10.2334,-4.8842 -20.93893,-8.44459 -32.43946,-10.78854 -8.02849,-1.6363 -17.98123,-1.76954 -132.18222,-1.76954 l -123.5,0 -0.25626,238 c -0.14094,130.9 -0.0362,238.57903 0.23277,239.28683 0.39607,1.0423 24.10885,1.2195 124.75626,0.9321 111.77119,-0.3191 125.01914,-0.5232 131.74463,-2.0302 z m -74.31941,-39.3641 C 785.7961,1004.955 785.5,1001.6206 785.5,997.90713 l 0,-6.7518 -6.29558,-2.09503 c -22.73308,-7.56509 -42.48123,-29.54333 -48.3752,-53.83805 -2.14242,-8.83096 -2.14242,-25.629 0,-34.45996 5.73712,-23.64821 22.25965,-42.77283 45.67078,-52.86335 l 8.5,-3.66362 0.5,-6.29342 c 0.78992,-9.94258 3.5346,-8.93743 4.23346,1.55037 0.19878,2.98316 0.64786,3.90147 1.76654,3.6124 0.825,-0.21318 7.2375,-0.38071 14.25,-0.3723 l 12.75,0.0153 0,-5.31868 c 0,-5.34783 1.47358,-7.8771 3.09649,-5.31484 0.48009,0.75797 0.88094,3.85312 0.8908,6.87812 l 0.0179,5.5 8.05612,2.84531 c 20.71944,7.31782 38.11041,25.32197 45.54871,47.15469 3.85553,11.31668 4.54203,29.50715 1.5588,41.30423 -6.26631,24.77989 -24.84569,45.25805 -48.41883,53.36714 l -6.75,2.32198 0,6.13088 c 0,3.9089 -0.48637,6.5345 -1.34201,7.2446 -2.04758,1.6994 -2.65798,0.3351 -2.65798,-5.94057 l 0,-5.73842 -12.75,0.021 c -7.0125,0.0115 -13.425,-0.14368 -14.25,-0.34492 -1.17548,-0.28674 -1.56435,0.86011 -1.79742,5.30104 -0.27544,5.24797 -1.99068,8.71157 -3.54459,7.15767 z M 822,987.4862 c 20.51528,-5.28496 38.03438,-19.71267 47.00776,-38.71285 5.08918,-10.7758 6.83723,-18.64548 6.83723,-30.78108 0,-12.85014 -1.80539,-20.37917 -7.79317,-32.5 -15.82906,-32.04213 -53.38905,-47.01541 -87.86298,-35.02657 -30.96714,10.76931 -51.25167,43.61917 -46.92098,75.98636 2.29422,17.14679 8.25193,29.3939 20.23214,41.59072 11.24038,11.4436 24.76476,18.5483 39.86953,20.94448 7.34779,1.16563 21.072,0.44608 28.63047,-1.50106 z m -30.71107,-52.24393 -0.28893,-8.75 -15.5,-0.5 c -12.88889,-0.41577 -15.5,-0.75269 -15.5,-2 0,-1.25393 2.46073,-1.54702 15,-1.78665 8.25,-0.15765 16.0125,-0.0366 17.25,0.26906 2.15487,0.5322 2.25,0.99883 2.25,11.03664 0,8.52561 -0.27258,10.48095 -1.46107,10.48095 -1.14809,0 -1.52296,-1.87435 -1.75,-8.75 z m 21.89857,8.10417 c -0.96427,-0.96427 -0.83202,-17.57818 0.15226,-19.12914 0.61473,-0.96864 4.8163,-1.20891 17.48673,-1 21.69536,0.3577 22.74325,2.0953 1.67351,2.77497 l -15.5,0.5 -0.5,8.42083 c -0.45593,7.67854 -1.47439,10.27145 -3.3125,8.43334 z m -13.23295,-20.80872 c -4.36602,-4.36601 -2.05305,-10.54545 3.94717,-10.54545 6.02475,0 8.84697,6.75131 4.59828,11 -2.67532,2.67532 -5.56954,2.52137 -8.54545,-0.45455 z m -39.93981,-9.52161 c -1.54511,-2.50003 1.22744,-3.02384 16.00534,-3.02384 l 15.40205,0 0.28894,-8.50605 C 792.12732,889.23203 794,890.66874 794,903.24227 l 0,10.25 -16.67625,0.27384 c -10.59418,0.17397 -16.90702,-0.0996 -17.30901,-0.75 z m 53.10112,-0.58251 c -0.96314,-2.5099 -0.69182,-17.77279 0.34508,-19.41237 1.64959,-2.60839 2.52788,-0.0652 3.03906,8.79985 l 0.5,8.67119 15.5,0.5 c 21.17165,0.68296 19.99313,2.4193 -1.88221,2.77312 -14.73961,0.2384 -16.96436,0.0691 -17.50193,-1.33179 z M 786.15799,788.31693 c -0.36189,-0.3619 -0.65799,-3.6963 -0.65799,-7.4098 l 0,-6.7518 -6.29558,-2.09503 c -22.73308,-7.56509 -42.48123,-29.54333 -48.3752,-53.83805 -2.14242,-8.83096 -2.14242,-25.629 0,-34.45996 5.64939,-23.28657 23.91779,-44.51612 45.3545,-52.70605 9.04647,-3.45623 8.76768,-3.15433 9.31628,-10.0882 0.7886,-9.96722 3.53357,-8.97891 4.23346,1.52423 0.19949,2.99383 0.64385,3.89752 1.76654,3.5926 0.825,-0.22406 7.2375,-0.38959 14.25,-0.36782 l 12.75,0.0396 0,-5.32316 c 0,-4.96096 1.22349,-7.54956 2.81653,-5.9591 0.37591,0.3753 0.90847,3.44356 1.18347,6.81835 l 0.5,6.13599 7.29978,2.6899 c 10.81164,3.98397 17.68878,8.44878 26.76071,17.37367 9.25948,9.10942 15.02641,18.19141 19.04954,30 3.85553,11.31668 4.54203,29.50715 1.5588,41.30423 -6.26631,24.77989 -24.84569,45.25805 -48.41883,53.36714 l -6.75,2.32198 0,6.13088 c 0,3.90893 -0.48637,6.53453 -1.34201,7.24465 -2.05022,1.70154 -2.65799,0.33386 -2.65799,-5.98132 l 0,-5.77911 -11.25,0.1183 c -6.1875,0.0651 -12.7125,-0.22009 -14.5,-0.63367 l -3.25,-0.75198 0,5.95701 c 0,5.59591 -1.6213,9.24726 -3.34201,7.52656 z M 822,770.4862 c 15.06224,-3.8802 30.43394,-14.01036 39.21387,-25.84249 10.01948,-13.50258 14.63112,-27.26123 14.63112,-43.65144 0,-12.92144 -1.79695,-20.34393 -7.96581,-32.90357 -12.86874,-26.20048 -42.86305,-42.20551 -71.83166,-38.32955 -16.18123,2.16503 -28.76137,8.00047 -40.38517,18.73312 -33.81302,31.22069 -29.4371,86.555 8.8582,112.01366 17.02181,11.31608 38.09236,14.9746 57.47945,9.98027 z m -30.71107,-52.24393 -0.28893,-8.75 -15.5,-0.5 c -12.88889,-0.41577 -15.5,-0.75269 -15.5,-2 0,-1.25393 2.46073,-1.54702 15,-1.78665 8.25,-0.15765 16.0125,-0.0366 17.25,0.26906 2.15487,0.5322 2.25,0.99883 2.25,11.03664 0,8.52561 -0.27258,10.48095 -1.46107,10.48095 -1.14809,0 -1.52296,-1.87435 -1.75,-8.75 z m 21.89857,8.10417 c -0.96427,-0.96427 -0.83202,-17.57818 0.15226,-19.12914 0.61473,-0.96864 4.8163,-1.20891 17.48673,-1 21.69536,0.3577 22.74325,2.0953 1.67351,2.77497 l -15.5,0.5 -0.5,8.42083 c -0.45593,7.67854 -1.47439,10.27145 -3.3125,8.43334 z m -13.23295,-20.80872 c -4.36602,-4.36601 -2.05305,-10.54545 3.94717,-10.54545 6.02475,0 8.84697,6.75131 4.59828,11 -2.67532,2.67532 -5.56954,2.52137 -8.54545,-0.45455 z m -39.93981,-9.52161 c -1.54511,-2.50003 1.22744,-3.02384 16.00534,-3.02384 l 15.40205,0 0.28894,-8.50605 C 792.12732,672.23203 794,673.66874 794,686.24227 l 0,10.25 -16.67625,0.27384 c -10.59418,0.17397 -16.90702,-0.0996 -17.30901,-0.75 z m 53.10112,-0.58251 c -0.96314,-2.5099 -0.69182,-17.77279 0.34508,-19.41237 1.64959,-2.60839 2.52788,-0.0652 3.03906,8.79985 l 0.5,8.67119 15.5,0.5 c 21.17165,0.68296 19.99313,2.4193 -1.88221,2.77312 -14.73961,0.2384 -16.96436,0.0691 -17.50193,-1.33179 z m 101.01769,324.9891 c 9.69542,-7.4261 23.02288,-21.57017 29.35326,-31.1519 9.57981,-14.50002 17.04589,-33.12567 20.15413,-50.27853 1.99699,-11.02044 2.00098,-251.94618 0.004,-263 -3.21032,-17.77504 -11.88928,-38.80605 -21.80957,-52.85021 -8.58949,-12.16012 -31.90427,-34.14979 -36.20768,-34.14979 -0.83348,0 -1.12769,57.00642 -1.12769,218.5 0,167.32277 0.27661,218.49993 1.18098,218.49993 0.64954,0 4.4532,-2.5063 8.45257,-5.5695 z M 62.500003,807.49227 c 0,-153.85578 -0.31133,-216.5 -1.07596,-216.5 -1.85518,0 -12.10469,8.50312 -20.08747,16.66481 -17.78768,18.18636 -29.26917,40.15917 -34.5670307,66.15297 -1.63675,8.03071 -1.76954,18.02464 -1.76954,133.18222 0,136.29971 -0.24368,130.28413 6.0765007,150.00781 5.98983,18.69273 15.41955,34.77631 28.36671,48.38292 7.64657,8.0361 20.00321,18.5723 21.80679,18.5941 0.9962,0.012 1.25,-43.94343 1.25,-216.48483 z m 416.999997,38.5 0.5,-31.5 3.25,-0.31336 3.25,-0.31336 0.0153,30.81336 c 0.008,16.94735 0.40839,31.43396 0.88882,32.19248 1.22488,1.93388 9.57241,0.76482 19.78201,-2.77044 19.62966,-6.79713 36.04881,-23.26823 42.93574,-43.07159 12.47888,-35.88302 -4.74228,-74.24415 -39.90044,-88.88053 -7.62606,-3.17473 -21.18686,-6.02336 -22.4887,-4.72405 -0.40301,0.40222 -0.95774,14.98195 -1.23274,32.3994 l -0.5,31.66809 -3,0 -3,0 -0.2641,-31.78679 c -0.22276,-26.81213 -0.49316,-31.8747 -1.72779,-32.34847 -3.03996,-1.16654 -17.16291,2.653 -26.04615,7.04417 -42.12592,20.82371 -52.41203,76.67219 -20.42898,110.91932 6.88865,7.3763 15.81551,13.88138 23.5818,17.18425 6.05681,2.57586 17.57192,5.44581 20.88522,5.20529 L 479,877.49227 l 0.5,-31.5 z m 0.93043,-36.58382 c -1.77963,-2.14433 0.0125,-4.91618 3.17856,-4.91618 1.75927,0 2.48018,0.63065 2.7285,2.38691 0.53415,3.77776 -3.45377,5.4853 -5.90706,2.52927 z"
       style="fill:#b3b3b3" />
    <g
       style="display:inline"
       id="g4285"
       transform="translate(-0.05586235,-1.9983724)">
      <path
         sodipodi:nodetypes="csssssssssssssscscccccssssssssssssscccssssssssccsssscssscccccsssccccccccssssssscscsccsssssssssscscsscsscccscccsscsssssccccccccssssscccssss"
         style="fill:#666666"
         d="m 113.22395,1053.4291 c -23.070765,-3.6046 -44.059115,-12.7414 -63.319225,-27.5646 -19.13069,-14.7237 -36.42007,-39.55041 -44.6839303,-64.16405 -6.43918,-19.17887 -6.16492998,-12.40781 -6.16492998,-152.20981 0,-117.54905 0.13168,-127.6461 1.76954,-135.68222 5.65931998,-27.7673 17.39441028,-49.52268 37.69699028,-69.88545 20.1311,-20.19079 42.01247,-31.98891 69.851245,-37.66279 8.21241,-1.67379 28.59542,-1.76954 376.68222,-1.76954 348.48975,0 368.46177,0.0941 376.70981,1.77471 27.67656,5.63938 49.79246,17.56703 69.82366,37.65762 20.20157,20.26146 32.06701,42.25282 37.69182,69.85786 1.64436,8.07008 1.77471,18.00109 1.77471,135.20981 0,137.50998 0.19606,132.32599 -5.70737,150.91032 -6.95553,21.89643 -17.41543,39.03535 -33.65375,55.14284 -19.59156,19.4338 -40.2704,30.8325 -67.63888,37.2846 l -9,2.1217 -366.5,0.1794 c -307.32109,0.1505 -367.92609,-0.043 -375.33191,-1.2004 z m 249.83191,-243.93846 0,-240 -122.5,0 -122.5,0 -10.43362,2.30635 c -5.73849,1.2685 -14.493565,3.87431 -19.455735,5.7907 -9.54054,3.68456 -22.61064,10.34612 -22.61064,11.52418 0,0.3852 -1.9125,1.63221 -4.25,2.77113 -6.01887,2.93265 -19.45138,14.67783 -26.37289,23.06004 -17.18983,20.81757 -27.4320403,44.5891 -30.3022903,70.32969 -1.47822,13.25677 -1.47822,235.17905 0,248.43582 2.88103,25.83728 13.2179903,49.76143 30.4251803,70.41685 6.71383,8.0593 22.1497,21.4031 27.19934,23.513 1.81536,0.7585 3.30066,1.7364 3.30066,2.1731 0,1.4653 15.39995,8.9772 25.75899,12.5649 9.725325,3.3683 21.910845,6.11 30.741005,6.9167 2.2,0.201 57.325,0.3276 122.5,0.2815 l 118.5,-0.084 0,-240.00003 z M 64.555865,838.43162 c 0,-0.85746 0.45734,-1.27636 1.01631,-0.9309 0.55897,0.34546 0.75742,1.04702 0.44099,1.55902 -0.85724,1.38704 -1.4573,1.12841 -1.4573,-0.62812 z m 0,-58 c 0,-0.85746 0.45734,-1.27636 1.01631,-0.9309 0.55897,0.34546 0.75742,1.04702 0.44099,1.55902 -0.85724,1.38704 -1.4573,1.12841 -1.4573,-0.62812 z m 415.755705,185.95207 0.25572,-83.10694 -5.85603,-0.61208 c -8.23785,-0.86102 -20.51002,-4.95755 -28.1554,-9.39844 -3.575,-2.07658 -10.36264,-7.60174 -15.08364,-12.27815 -7.17256,-7.10481 -9.35059,-10.06388 -13.24895,-18 -6.29661,-12.8184 -8.02265,-20.02108 -8.02731,-33.49744 -0.003,-8.29636 0.53572,-12.91942 2.19127,-18.80932 6.14883,-21.87557 21.38091,-39.64562 41.66863,-48.61147 5.65127,-2.49749 19.59493,-6.06163 23.75574,-6.0722 l 2.75575,-0.007 -0.25575,-83.25 -0.25574,-83.25 -54.5,0 -54.5,0 -0.25625,239 c -0.14094,131.45 -0.0411,239.56635 0.22192,240.25865 0.37787,0.9946 11.86499,1.2044 54.75626,1 l 54.27807,-0.2587 z m 115.74429,-156.89305 0,-240 -55,0 -55,0 -0.25574,83.25 -0.25575,83.25 2.5479,0 c 4.64597,0 17.87073,3.146 23.90993,5.68786 20.89365,8.79402 36.84989,27.15085 42.72944,49.15803 2.93376,10.98104 2.90053,26.95029 -0.0783,37.65411 -3.61843,13.00193 -9.34523,22.74779 -19.09744,32.5 -4.675,4.675 -11.425,10.19901 -15,12.27559 -7.87409,4.57374 -20.2604,8.63721 -28.74237,9.42927 l -6.25767,0.58435 0,82.68873 c 0,45.47882 0.30381,82.99252 0.67512,83.36382 0.37132,0.3714 25.23382,0.5589 55.25,0.4167 l 54.57488,-0.2585 z m 266,237.79916 c 17.26864,-4.0431 30.52184,-9.4867 43.82665,-18.0012 30.6235,-19.5977 50.95865,-49.5747 58.39864,-86.08815 1.6437,-8.06683 1.77471,-17.93762 1.77471,-133.70981 0,-115.63587 -0.13256,-125.65041 -1.76954,-133.68222 -5.36313,-26.31408 -17.54812,-49.48851 -35.56675,-67.64379 -8.31557,-8.37864 -19.08197,-16.89072 -24.22466,-19.15239 -1.34148,-0.58996 -3.90092,-2.1409 -5.68765,-3.44653 -4.69641,-3.43184 -19.29803,-9.32832 -29.98044,-12.10682 -16.82255,-4.37554 -24.01026,-4.5831 -147.77096,-4.26704 l -117,0.29879 -0.25625,239 c -0.14094,131.45 -0.0362,239.57906 0.23276,240.28686 0.39601,1.0421 24.12396,1.2234 124.75626,0.9532 122.25642,-0.3283 124.41286,-0.3678 133.26723,-2.4409 z m 39.04271,-208.23006 c -0.31644,-0.512 -0.11799,-1.21356 0.44098,-1.55902 0.55897,-0.34546 1.01631,0.0734 1.01631,0.9309 0,1.75653 -0.60006,2.01516 -1.45729,0.62812 z m 0.0402,-57.93489 c -0.43077,-0.697 -0.51316,-1.53733 -0.18309,-1.86741 0.89497,-0.89496 1.87077,0.4213 1.38739,1.87145 -0.33872,1.01617 -0.57427,1.01538 -1.2043,-0.004 z m -420.34716,67.61579 c 0.25787,-30.49525 0.31255,-31.25 2.26425,-31.25 1.95191,0 2.00636,0.75482 2.26445,31.39326 l 0.26444,31.39325 6.53064,-0.60984 c 25.28988,-2.3616 49.39878,-21.7275 58.06235,-46.63958 5.42565,-15.60147 5.41433,-31.50528 -0.0336,-47.17079 -3.61091,-10.38317 -8.13001,-17.36017 -17.15577,-26.48663 -6.70089,-6.77565 -9.67898,-8.94145 -17.58064,-12.78538 -9.2276,-4.48897 -19.94426,-7.54136 -26.60187,-7.57693 l -3.25,-0.0174 0,31.56955 0,31.56955 -2.25,-0.31955 -2.25,-0.31955 -0.26425,-31.25 -0.26424,-31.25 -2.73576,0.0174 c -6.23441,0.0396 -17.29579,3.21498 -25.77379,7.39891 -42.11925,20.78609 -52.41168,76.6652 -20.42898,110.91196 6.88865,7.3763 15.81551,13.88138 23.5818,17.18425 5.7793,2.45784 17.36873,5.36978 21.62097,5.43246 l 3.73576,0.0551 0.26424,-31.25 z m -0.30532,-37.33382 c -1.77963,-2.14433 0.0125,-4.91618 3.17856,-4.91618 1.75927,0 2.48018,0.63065 2.7285,2.38691 0.53415,3.77776 -3.45377,5.4853 -5.90706,2.52927 z"
         id="path4155"
         inkscape:connector-curvature="0" />
      <rect
         y="565.2193"
         x="480"
         height="237.14285"
         width="6.4287195"
         id="rect4232"
         style="fill:#b3b3b3;stroke:none;stroke-width:6.34299994;stroke-miterlimit:4;stroke-dasharray:none" />
      <rect
         y="814.50494"
         x="479.64279"
         height="237.14285"
         width="6.4287195"
         id="rect4232-7"
         style="display:inline;fill:#b3b3b3;stroke:none;stroke-width:6.34299994;stroke-miterlimit:4;stroke-dasharray:none" />
      <path
         inkscape:connector-curvature="0"
         transform="translate(0,562.36213)"
         id="path4249"
         d="m 67.142578,220.57617 0,52.40821 A 26.428572,26.428572 0 0 0 90.357422,246.78516 26.428572,26.428572 0 0 0 67.142578,220.57617 Z"
         style="fill:#666666;stroke:none;stroke-width:6.34299994;stroke-miterlimit:4;stroke-dasharray:none" />
      <path
         id="path4249-7"
         d="m 900.17885,783.30088 0,52.40821 A 26.428572,26.428572 0 0 1 876.964,809.50987 26.428572,26.428572 0 0 1 900.17885,783.30088 Z"
         style="display:inline;fill:#666666;stroke:none;stroke-width:6.34299994;stroke-miterlimit:4;stroke-dasharray:none"
         inkscape:connector-curvature="0" />
    </g>
    <path
       inkscape:connector-curvature="0"
       id="path4149"
       d="m 121.5,1052.3408 c -20.23405,-1.9852 -43.569487,-10.2952 -60.749687,-21.6336 -31.57182,-20.8366 -50.54835,-48.68151 -59.4446306,-87.22538 l -2.30568003,-9.98955 0,-126 0,-126 2.30568003,-9.98955 c 4.46445,-19.3426 10.6925306,-34.41527 20.0446706,-48.51045 20.32518,-30.63329 50.74791,-50.75384 88.649647,-58.6298 8.6965,-1.80713 21.34241,-1.8702 375,-1.8702 353.65759,0 366.3035,0.0631 375,1.8702 37.86992,7.86935 68.02852,27.81109 88.56729,58.56325 9.39617,14.06864 15.64087,29.14035 20.12703,48.577 l 2.30568,9.98955 0,126 0,126 -2.30568,9.98955 c -8.84356,38.31544 -28.12152,66.60688 -59.44462,87.23818 -14.26895,9.3983 -26.42341,14.4284 -47.2497,19.554 l -9,2.215 -364,0.098 c -200.2,0.054 -365.575,-0.057 -367.5,-0.2458 z m 743.54671,-7.0459 c 27.40937,-7.4096 46.52858,-18.4166 64.93048,-37.3807 14.29636,-14.73304 23.57893,-29.95519 30.03327,-49.25044 6.64239,-19.8574 6.4815,-16.1048 6.4815,-151.17149 0,-135.06669 0.16089,-131.31409 -6.4815,-151.17149 C 945.48884,612.90842 910.94983,581.31952 865.5,569.88279 l -9.5,-2.39052 -371,0 -371,0 -9.5,2.39052 C 58.904793,581.3561 24.560283,612.76971 9.9849127,656.33213 3.1765724,676.6807 3.4098524,670.89076 3.7288024,811.60426 l 0.28761,126.88801 2.6789999,9.7295 c 6.9632307,25.2889 17.3503507,43.69584 34.4142107,60.98513 9.0324,9.1518 14.9973,13.8492 26.1768,20.6145 13.4769,8.1556 32.05006,14.9416 46.713577,17.0677 3.33065,0.4829 169.94278,0.8057 374.5,0.7255 l 368.5,-0.1444 8.04671,-2.1753 z"
       style="display:inline;fill:#ffffff" />
  </g>
  <g
     inkscape:groupmode="layer"
     id="layer2"
     inkscape:label="blue"
     style="display:inline"
     transform="translate(0,-562.36213)" />
  <g
     inkscape:groupmode="layer"
     id="layer3"
     inkscape:label="rink"
     transform="translate(0,-562.36213)" />
</svg>
